<?xml version="1.0" encoding="UTF-8"?>
<!DOCTYPE svg PUBLIC "-//W3C//DTD SVG 1.1//EN" "http://www.w3.org/Graphics/SVG/1.1/DTD/svg11.dtd">
<!-- Creator: CorelDRAW X7 -->
<svg xmlns="http://www.w3.org/2000/svg" xml:space="preserve" width="11in" height="7.9in" version="1.1" style="shape-rendering:geometricPrecision; text-rendering:geometricPrecision; image-rendering:optimizeQuality; fill-rule:evenodd; clip-rule:evenodd"
viewBox="0 0 11000 7900"
 xmlns:xlink="http://www.w3.org/1999/xlink">
 <defs>
  <style type="text/css">
   <![CDATA[
    .fil0 {fill:#0A0B69}
    .fil2 {fill:#0A0B69;fill-rule:nonzero}
    .fil1 {fill:#0A0B69;fill-rule:nonzero}
   ]]>
  </style>
 </defs>
 <g id="Layer_x0020_1">
  <metadata id="CorelCorpID_0Corel-Layer"/>
  <g id="_19347212432">
   <path class="fil0" d="M3599 3850c15,-216 7,-870 4,-1132 0,0 -1225,-155 -1685,-565 -478,430 -1672,565 -1672,565 -15,1631 -123,2064 1679,2917 934,-322 1613,-929 1674,-1785zm-2952 549c233,-427 467,-854 701,-1281 100,253 149,401 -61,759l401 3c0,0 271,119 0,257 -362,-34 -537,53 -691,262 -117,0 -233,0 -350,0zm788 -1412l645 1220c103,146 171,187 461,204 -232,-440 -482,-880 -714,-1320 -114,-146 -392,-104 -392,-104zm518 0l1247 -6c0,0 -29,252 -270,262 -133,6 -461,24 -727,-9 -193,-25 -144,-110 -250,-247zm336 580l854 -5c0,0 18,265 -147,277 -91,4 -385,27 -536,-40 -126,-56 -99,-94 -171,-232zm322 571l570 -5c0,0 30,250 -99,261 -60,4 -237,43 -338,-24 -84,-56 -84,-94 -133,-232zm747 -284c12,-170 7,-652 5,-910l-1 -52c-148,-21 -1060,-159 -1443,-482 -396,338 -1285,463 -1432,482 0,68 -1,134 -2,198 -16,1228 -21,1600 1441,2294 415,-145 771,-354 1025,-625 235,-250 382,-553 407,-905zm52 -910c2,259 7,743 -5,914 -26,363 -178,676 -420,934 -261,278 -627,493 -1053,640l-17 -1c-1499,-710 -1494,-1088 -1477,-2342 1,-70 2,-143 2,-218l1 -21 20 -3c3,0 1032,-116 1442,-485l16 -15 15 14c395,353 1451,486 1454,487l21 2 0 21 1 73z"/>
   <g>
    <g>
     <path class="fil1" d="M3907 5194l-119 0 0 -574 119 0 0 574zm288 -435c44,0 80,12 108,35 27,23 41,61 41,115l0 285 -114 0 0 -258c0,-22 -3,-39 -9,-51 -11,-22 -31,-33 -62,-33 -37,0 -63,16 -77,48 -7,17 -11,38 -11,65l0 229 -111 0 0 -423 108 0 0 62c14,-22 28,-38 41,-48 22,-17 51,-26 86,-26zm287 300c2,20 7,34 15,42 14,15 40,22 77,22 22,0 39,-3 52,-9 13,-7 19,-17 19,-30 0,-12 -5,-22 -15,-28 -10,-7 -49,-18 -116,-34 -49,-12 -83,-27 -102,-45 -20,-17 -30,-43 -30,-76 0,-39 15,-73 46,-101 31,-28 75,-42 131,-42 53,0 96,10 129,32 34,21 53,57 58,109l-111 0c-1,-14 -5,-26 -12,-34 -12,-15 -33,-23 -63,-23 -24,0 -41,4 -52,12 -10,7 -15,16 -15,26 0,13 5,22 17,28 10,6 49,16 116,31 44,10 77,26 99,47 22,21 33,48 33,80 0,42 -16,76 -47,103 -31,27 -80,40 -146,40 -67,0 -116,-14 -148,-42 -32,-29 -48,-65 -48,-108l113 0zm419 -290l0 257c0,24 2,42 8,55 10,21 30,32 60,32 37,0 63,-15 77,-46 8,-17 11,-39 11,-66l0 -232 113 0 0 425 -108 0 0 -59c-1,1 -4,5 -8,11 -4,7 -9,13 -15,18 -17,15 -34,26 -50,32 -16,5 -35,8 -57,8 -63,0 -105,-23 -127,-68 -12,-25 -19,-62 -19,-110l0 -257 115 0zm555 -10c2,0 4,0 5,1 2,0 5,0 10,0l0 114c-7,-1 -13,-1 -19,-1 -5,-1 -10,-1 -13,-1 -45,0 -75,14 -90,44 -9,16 -13,41 -13,75l0 203 -111 0 0 -425 105 0 0 74c18,-28 32,-47 45,-57 21,-18 48,-27 81,-27zm266 229c-7,4 -14,8 -21,11 -7,2 -17,5 -30,7l-25 5c-24,4 -41,9 -51,15 -18,10 -26,26 -26,48 0,19 5,32 16,41 10,8 23,12 39,12 24,0 46,-7 67,-21 20,-14 31,-39 31,-77l0 -41zm-67 -52c20,-2 35,-6 44,-10 16,-6 24,-17 24,-31 0,-18 -6,-30 -19,-36 -12,-7 -30,-10 -53,-10 -27,0 -46,6 -57,19 -8,10 -13,23 -16,39l-107 0c3,-37 13,-68 32,-91 29,-38 80,-57 151,-57 47,0 88,10 125,28 36,19 54,54 54,105l0 194c0,14 0,30 1,49 1,15 3,25 6,30 4,5 10,9 17,13l0 16 -121 0c-3,-8 -6,-16 -7,-24 -1,-7 -2,-16 -3,-25 -15,16 -33,31 -53,42 -24,14 -51,21 -82,21 -38,0 -70,-11 -95,-33 -26,-22 -38,-53 -38,-93 0,-53 20,-90 61,-114 22,-13 54,-22 97,-27l39 -5zm460 -177c44,0 80,12 108,35 28,23 42,61 42,115l0 285 -115 0 0 -258c0,-22 -3,-39 -9,-51 -10,-22 -31,-33 -62,-33 -37,0 -63,16 -77,48 -7,17 -10,38 -10,65l0 229 -111 0 0 -423 107 0 0 62c15,-22 28,-38 41,-48 23,-17 51,-26 86,-26zm455 163c-2,-16 -8,-30 -16,-43 -13,-17 -32,-25 -58,-25 -37,0 -62,18 -76,55 -7,20 -11,46 -11,79 0,31 4,56 11,75 13,36 38,53 74,53 26,0 44,-7 55,-21 10,-14 17,-32 19,-55l114 0c-2,34 -15,66 -36,96 -35,49 -86,73 -155,73 -68,0 -118,-20 -150,-61 -32,-40 -48,-93 -48,-157 0,-73 18,-130 53,-171 36,-40 85,-61 147,-61 53,0 97,12 131,36 34,24 54,67 60,127l-114 0zm316 -72c-29,0 -51,8 -67,24 -15,16 -25,37 -29,64l191 0c-2,-28 -12,-50 -29,-65 -18,-15 -40,-23 -66,-23zm0 -92c37,0 71,6 100,20 30,13 54,34 74,62 17,26 28,55 33,88 3,20 5,48 4,84l-310 0c2,43 17,73 45,91 17,10 37,16 61,16 25,0 46,-7 62,-20 8,-7 16,-17 22,-29l114 0c-2,25 -16,51 -41,77 -38,41 -91,62 -159,62 -57,0 -107,-18 -150,-52 -43,-35 -65,-92 -65,-171 0,-73 20,-130 59,-169 39,-39 89,-59 151,-59z"/>
     <path class="fil1" d="M7243 4912c0,-100 27,-177 80,-232 46,-47 104,-71 176,-71 95,0 165,32 209,95 25,36 38,72 39,107l-118 0c-8,-27 -18,-48 -30,-62 -21,-25 -53,-37 -95,-37 -43,0 -76,17 -101,52 -25,35 -37,85 -37,150 0,64 13,112 39,145 26,32 59,48 99,48 41,0 72,-14 94,-42 12,-14 22,-37 30,-66l119 0c-11,62 -37,113 -79,153 -42,39 -96,58 -162,58 -82,0 -146,-26 -193,-79 -47,-53 -70,-126 -70,-219zm732 204c33,0 58,-11 75,-34 17,-23 26,-56 26,-99 0,-42 -9,-75 -26,-98 -17,-23 -42,-35 -75,-35 -32,0 -57,12 -75,35 -17,23 -26,56 -26,98 0,43 9,76 26,99 18,23 43,34 75,34zm218 -133c0,62 -18,115 -54,159 -36,45 -91,67 -164,67 -73,0 -127,-22 -163,-67 -36,-44 -54,-97 -54,-159 0,-62 18,-115 54,-159 36,-45 90,-68 163,-68 73,0 128,23 164,68 36,44 54,97 54,159zm503 -223c19,0 37,4 55,11 19,7 35,20 50,38 12,15 20,33 24,55 3,14 4,35 4,63l-1 267 -113 0 0 -270c0,-16 -3,-30 -8,-40 -10,-20 -28,-30 -55,-30 -31,0 -52,13 -64,39 -6,13 -9,29 -9,48l0 253 -111 0 0 -252c0,-25 -2,-44 -8,-55 -9,-21 -27,-31 -55,-31 -31,0 -53,10 -64,31 -6,11 -8,29 -8,52l0 255 -113 0 0 -423 108 0 0 61c13,-22 26,-37 39,-47 21,-17 49,-25 83,-25 33,0 59,7 79,22 16,13 28,30 36,51 15,-25 33,-43 54,-55 23,-12 49,-18 77,-18zm479 222c0,-32 -7,-61 -22,-87 -15,-25 -40,-37 -74,-37 -40,0 -68,19 -84,57 -7,20 -11,46 -11,77 0,50 13,84 39,104 16,12 35,18 56,18 31,0 55,-12 72,-36 16,-24 24,-56 24,-96zm-64 -222c50,0 92,19 127,55 34,37 51,91 51,162 0,74 -17,131 -50,171 -34,39 -78,58 -131,58 -34,0 -62,-8 -84,-25 -13,-9 -25,-23 -36,-40l0 220 -111 0 0 -592 107 0 0 63c12,-18 25,-33 39,-43 24,-19 54,-29 88,-29zm442 228c-7,4 -14,8 -21,11 -7,2 -17,5 -30,7l-25 5c-24,4 -41,9 -51,15 -18,10 -26,26 -26,48 0,19 5,32 16,41 10,8 23,12 39,12 24,0 46,-7 67,-21 20,-14 31,-39 31,-77l0 -41zm-67 -52c20,-2 35,-6 44,-10 16,-6 24,-17 24,-31 0,-18 -6,-30 -19,-36 -12,-7 -30,-10 -53,-10 -27,0 -46,6 -57,19 -8,10 -13,23 -16,39l-107 0c3,-37 13,-68 32,-91 29,-38 80,-57 151,-57 47,0 88,10 125,28 36,19 54,54 54,105l0 194c0,14 0,30 1,49 1,15 3,25 6,30 4,5 10,9 17,13l0 16 -121 0c-3,-8 -6,-16 -7,-24 -1,-7 -2,-16 -3,-25 -15,16 -33,31 -53,42 -24,14 -51,21 -82,21 -38,0 -70,-11 -95,-33 -26,-22 -38,-53 -38,-93 0,-53 20,-90 61,-114 22,-13 54,-22 97,-27l39 -5zm460 -177c44,0 80,12 108,35 28,23 42,61 42,115l0 285 -115 0 0 -258c0,-22 -3,-39 -9,-51 -10,-22 -31,-33 -62,-33 -37,0 -63,16 -77,48 -7,17 -10,38 -10,65l0 229 -111 0 0 -423 107 0 0 62c15,-22 28,-38 41,-48 23,-17 51,-26 86,-26zm218 518l14 0c11,1 21,1 31,-1 10,-1 18,-4 25,-9 6,-4 12,-14 18,-28 6,-14 8,-23 7,-26l-156 -444 124 0 93 314 87 -314 118 0 -145 418c-28,81 -51,131 -67,150 -16,19 -49,29 -99,29 -9,0 -17,0 -23,0 -6,0 -15,-1 -27,-1l0 -88z"/>
    </g>
    <g>
     <path class="fil1" d="M5177 3684l0 -173 168 0 0 -264 313 0 0 264 195 0 0 173 -195 0 0 496c0,39 6,63 19,73 12,9 50,14 114,14 9,0 20,-1 30,-1 11,-1 21,-2 32,-3l0 183 -150 6c-149,4 -250,-17 -305,-61 -35,-28 -53,-71 -53,-130l0 -577 -168 0z"/>
     <path class="fil2" d="M6303 3347l0 272 793 0c-21,217 -51,220 -793,220l0 326 903 0 -6 271 -1230 -2 0 -1310 1196 0c-17,235 -116,242 -863,223z"/>
     <path class="fil1" d="M8014 3949c-20,10 -41,17 -61,23 -21,6 -49,12 -85,17l-72 11c-67,9 -115,20 -144,33 -50,23 -74,57 -74,105 0,42 15,72 45,91 30,18 67,27 111,27 68,0 132,-15 190,-46 57,-31 88,-88 90,-170l0 -91zm-193 -114c59,-6 101,-13 126,-22 45,-15 68,-38 68,-70 0,-38 -17,-65 -52,-79 -35,-15 -86,-22 -153,-22 -76,0 -129,14 -160,43 -23,21 -38,49 -45,85l-304 0c7,-82 36,-149 89,-202 84,-82 227,-123 430,-123 133,0 251,20 354,61 102,41 154,118 154,230l0 430c0,30 1,66 2,108 2,32 9,54 19,65 11,12 26,21 47,28l0 37 -343 0c-10,-18 -16,-36 -20,-53 -4,-16 -7,-35 -9,-56 -44,37 -94,68 -151,94 -68,30 -145,45 -231,45 -110,0 -201,-24 -272,-72 -72,-49 -107,-118 -107,-206 0,-116 57,-199 172,-251 63,-28 156,-48 278,-60l108 -10z"/>
     <path class="fil1" d="M8703 4103c7,44 21,75 44,94 39,32 112,49 218,49 62,0 111,-7 148,-22 36,-14 55,-36 55,-64 0,-28 -15,-49 -44,-63 -30,-15 -140,-40 -330,-74 -137,-27 -234,-60 -290,-99 -56,-39 -84,-96 -84,-169 0,-86 44,-160 131,-223 88,-62 211,-93 370,-93 151,0 274,23 369,70 95,47 149,128 163,242l-315 0c-4,-32 -15,-57 -34,-75 -35,-33 -94,-50 -178,-50 -69,0 -118,8 -147,25 -29,17 -44,36 -44,59 0,28 15,48 47,61 31,13 141,35 329,67 126,24 220,58 283,105 62,47 93,105 93,176 0,93 -44,169 -133,227 -89,59 -227,88 -414,88 -190,0 -330,-31 -420,-93 -91,-62 -136,-141 -136,-238l319 0z"/>
     <path class="fil1" d="M10077 3644c-82,0 -144,17 -189,52 -44,34 -73,82 -84,141l544 0c-6,-63 -34,-111 -84,-144 -51,-33 -113,-49 -187,-49zm2 -205c105,0 199,15 283,44 84,29 153,75 208,139 50,55 82,120 96,193 9,43 12,105 11,186l-880 0c5,95 47,161 126,199 48,24 106,35 174,35 72,0 130,-14 175,-43 25,-15 46,-36 65,-64l324 0c-9,56 -48,112 -117,170 -108,91 -259,136 -453,136 -161,0 -303,-38 -425,-115 -123,-77 -184,-202 -184,-376 0,-162 55,-287 166,-374 111,-86 254,-130 431,-130z"/>
     <path class="fil2" d="M4230 3913l455 0 -224 -522 -231 522zm80 -889l291 -2 701 1412c-498,3 -517,-277 -571,-279 -571,-20 -583,3 -722,258l-387 0 688 -1389z"/>
    </g>
   </g>
  </g>
 </g>
</svg>
