<svg width="204" height="191" viewBox="0 0 204 191" fill="none" xmlns="http://www.w3.org/2000/svg">
<path d="M15.4667 190.444C11.3755 190.444 7.45196 188.93 4.55908 186.234C1.66621 183.538 0.0410164 179.882 0.0410164 176.069V14.8889C0.0401568 12.4354 0.713197 10.0225 1.99606 7.87994C3.27893 5.73738 5.12892 3.93646 7.36992 2.64864C9.61092 1.36081 12.1683 0.628943 14.7987 0.522701C17.4291 0.41646 20.0449 0.939383 22.397 2.04169L195.358 82.6667C197.915 83.8626 200.064 85.6975 201.566 87.9662C203.068 90.2349 203.863 92.8482 203.863 95.5139C203.863 98.1797 203.068 100.793 201.566 103.062C200.064 105.33 197.915 107.165 195.358 108.361L22.397 188.917C20.2474 189.925 17.8734 190.449 15.4667 190.444ZM15.4667 14.4722L14.945 14.8889V176.069L15.6902 176.486L188.651 96C188.691 95.9367 188.711 95.8648 188.711 95.7917C188.711 95.7185 188.691 95.6467 188.651 95.5834L15.4667 14.4722Z" fill="#F4F4FF"/>
</svg>
